<?xml version="1.0" encoding="UTF-8"?>
<svg width="18px" height="18px" viewBox="0 0 18 18" version="1.1" xmlns="http://www.w3.org/2000/svg" xmlns:xlink="http://www.w3.org/1999/xlink">
    <!-- Generator: Sketch 52.5 (67469) - http://www.bohemiancoding.com/sketch -->
    <title>ico_个人中心</title>
    <desc>Created with Sketch.</desc>
    <g id="我要预约" stroke="none" stroke-width="1" fill="none" fill-rule="evenodd">
        <g id="02我的事务-个人-我的预约-新增我要预约入口" transform="translate(-1318.000000, -31.000000)" fill="#727475">
            <g id="导航-我的事务">
                <g id="Group" transform="translate(1318.000000, 31.000000)">
                    <g id="ico_个人中心">
                        <path d="M9.00005884,17.7269172 L9.00005884,17.9999734 C4.03733411,17.9999734 0,13.9626769 0,9.00003228 C0,4.03731349 4.03732002,2.86029737e-06 9.00005884,2.86029737e-06 C13.9626988,2.86029737e-06 18,4.03733228 18,9.00003228 C18,13.9626581 13.9626847,17.9999734 9.00005884,17.9999734 L9.00005884,17.7269172 Z M9.00006329,0.797310592 L9.00006329,1.0909962 C4.63325032,1.0909962 1.08067755,4.64355953 1.08067755,9.0103503 C1.08067755,13.3769987 4.63329778,16.9296095 9.00006329,16.9296095 C13.3667211,16.9296095 16.9193225,13.3769798 16.9193225,9.0103503 C16.9193225,4.64357842 13.3667686,1.0909962 9.00006329,1.0909962 L9.00006329,0.797310592 Z" id="Combined-Shape"></path>
                        <path d="M9,9.25 L9,9 C11.2089272,9 13,10.9406394 13,13.3359798 L13,13.5859798 L11.9298334,13.5859798 L11.9298334,13.3359798 C11.9298334,12.4124721 11.5552596,11.6157858 10.9750474,11.0537247 C10.1635132,10.2675781 9.68654191,10.1724381 9,10.1724381 C7.45993573,10.1724381 6.04295489,11.6696299 6.04295489,13.3359798 L6.04295489,13.5859798 L5,13.5859798 L5,13.3359798 C5,10.9406035 6.79100728,9 9,9 L9,9.25 Z" id="Path" fill-rule="nonzero"></path>
                        <path d="M8.99013926,9.775739 L8.99013926,10.1177354 C7.24537464,10.1177354 5.83011111,8.71432153 5.83011111,6.98103208 C5.83011111,5.24826958 7.24562392,3.84436563 8.99013926,3.84436563 C10.7347699,3.84436563 12.1499832,5.24779289 12.1499832,6.98103208 C12.1499832,8.71390451 10.7345821,10.1177354 8.99013926,10.1177354 L8.99013926,9.775739 Z M8.99012462,9.31284903 L8.99012462,9.02519423 C10.1407014,9.02519423 11.0725749,8.10093834 11.0725749,6.96220761 C11.0725749,5.82318851 10.1408792,4.89925198 8.99012462,4.89925198 C7.8394834,4.89925198 6.90751936,5.82357283 6.90751936,6.96220761 C6.90751936,8.10126312 7.83925165,9.02519423 8.99012462,9.02519423 L8.99012462,9.31284903 Z" id="Combined-Shape"></path>
                    </g>
                </g>
            </g>
        </g>
    </g>
</svg>